<mxfile host="app.diagrams.net" modified="2022-12-06T06:10:08.114Z" agent="5.0 (Windows NT 10.0; Win64; x64) AppleWebKit/537.36 (KHTML, like Gecko) Chrome/106.0.0.0 Safari/537.36 Edg/106.0.1370.61" etag="HFocFmP7cVUX5PlAyByx" version="20.6.0" type="github">
  <diagram id="prtHgNgQTEPvFCAcTncT" name="Page-1">
    <mxGraphModel dx="1673" dy="896" grid="1" gridSize="10" guides="1" tooltips="1" connect="1" arrows="1" fold="1" page="1" pageScale="1" pageWidth="827" pageHeight="1169" math="0" shadow="0">
      <root>
        <mxCell id="0" />
        <mxCell id="1" parent="0" />
        <mxCell id="dNxyNK7c78bLwvsdeMH5-19" value="Pool" style="swimlane;html=1;childLayout=stackLayout;resizeParent=1;resizeParentMax=0;horizontal=0;startSize=20;horizontalStack=0;" parent="1" vertex="1">
          <mxGeometry x="170" y="110" width="1480" height="1155" as="geometry" />
        </mxCell>
        <mxCell id="dNxyNK7c78bLwvsdeMH5-20" value="Lane 1" style="swimlane;html=1;startSize=20;horizontal=0;" parent="dNxyNK7c78bLwvsdeMH5-19" vertex="1">
          <mxGeometry x="20" width="1460" height="420" as="geometry" />
        </mxCell>
        <mxCell id="dNxyNK7c78bLwvsdeMH5-23" value="" style="ellipse;whiteSpace=wrap;html=1;" parent="dNxyNK7c78bLwvsdeMH5-20" vertex="1">
          <mxGeometry x="40" y="40" width="40" height="40" as="geometry" />
        </mxCell>
        <mxCell id="dNxyNK7c78bLwvsdeMH5-30" value="" style="rounded=0;whiteSpace=wrap;html=1;fontFamily=Helvetica;fontSize=12;fontColor=#000000;align=center;" parent="dNxyNK7c78bLwvsdeMH5-20" vertex="1">
          <mxGeometry x="70" y="90" width="210" height="170" as="geometry" />
        </mxCell>
        <mxCell id="J4HFlhDhFd4bc666YAR--60" value="" style="endArrow=none;dashed=1;html=1;dashPattern=1 3;strokeWidth=2;rounded=0;entryX=0;entryY=1;entryDx=0;entryDy=0;" edge="1" parent="dNxyNK7c78bLwvsdeMH5-20">
          <mxGeometry width="50" height="50" relative="1" as="geometry">
            <mxPoint x="970" y="940" as="sourcePoint" />
            <mxPoint x="969.9999999999995" y="-20" as="targetPoint" />
          </mxGeometry>
        </mxCell>
        <mxCell id="J4HFlhDhFd4bc666YAR--69" value="&lt;b&gt;&lt;u&gt;QTRIP PDO review&lt;br&gt;&lt;/u&gt;&lt;/b&gt;&lt;span style=&quot;background-color: initial;&quot;&gt;Delivery areas/regions review QTRIP to ensure milestones, budgets and expenditure flows are aligned.&lt;br&gt;&lt;/span&gt;There are 12 QTRIP regions." style="rounded=0;whiteSpace=wrap;html=1;" vertex="1" parent="dNxyNK7c78bLwvsdeMH5-20">
          <mxGeometry x="460" y="320" width="170" height="100" as="geometry" />
        </mxCell>
        <mxCell id="J4HFlhDhFd4bc666YAR--70" value="&lt;u style=&quot;font-weight: bold;&quot;&gt;Non-PDO review&lt;/u&gt;&lt;br&gt;-Translink&lt;br&gt;- Queensland Rail" style="rounded=0;whiteSpace=wrap;html=1;" vertex="1" parent="dNxyNK7c78bLwvsdeMH5-20">
          <mxGeometry x="460" y="270" width="170" height="50" as="geometry" />
        </mxCell>
        <mxCell id="J4HFlhDhFd4bc666YAR--67" value="PDO sign-off" style="rhombus;whiteSpace=wrap;html=1;" vertex="1" parent="dNxyNK7c78bLwvsdeMH5-20">
          <mxGeometry x="680" y="340" width="100" height="80" as="geometry" />
        </mxCell>
        <mxCell id="J4HFlhDhFd4bc666YAR--88" value="Ed sign-off?" style="rhombus;whiteSpace=wrap;html=1;" vertex="1" parent="dNxyNK7c78bLwvsdeMH5-20">
          <mxGeometry x="680" y="250" width="100" height="80" as="geometry" />
        </mxCell>
        <mxCell id="dNxyNK7c78bLwvsdeMH5-21" value="Lane 2" style="swimlane;html=1;startSize=20;horizontal=0;" parent="dNxyNK7c78bLwvsdeMH5-19" vertex="1">
          <mxGeometry x="20" y="420" width="1460" height="440" as="geometry" />
        </mxCell>
        <mxCell id="J4HFlhDhFd4bc666YAR--22" value="&lt;b&gt;&lt;u&gt;QTRIP review and consultation (Feb - Mar)&lt;/u&gt;&lt;/b&gt;&lt;br&gt;&lt;div style=&quot;&quot;&gt;&lt;div&gt;&lt;span style=&quot;background-color: initial;&quot;&gt;Coordinator:&amp;nbsp;&lt;/span&gt;&lt;span style=&quot;background-color: initial;&quot;&gt;PIP (&lt;/span&gt;&lt;b style=&quot;background-color: initial;&quot;&gt;Team?&lt;/b&gt;&lt;span style=&quot;background-color: initial;&quot;&gt;)&lt;/span&gt;&lt;/div&gt;&lt;/div&gt;&lt;div style=&quot;&quot;&gt;This involves ensuring publication review activities are undertaken, text for&amp;nbsp;&lt;/div&gt;&lt;div style=&quot;&quot;&gt;&lt;br&gt;&lt;/div&gt;" style="rounded=0;whiteSpace=wrap;html=1;align=center;" vertex="1" parent="dNxyNK7c78bLwvsdeMH5-21">
          <mxGeometry x="470" y="110" width="510" height="60" as="geometry" />
        </mxCell>
        <mxCell id="J4HFlhDhFd4bc666YAR--33" value="Draft Priority projects list released" style="rounded=0;whiteSpace=wrap;html=1;" vertex="1" parent="dNxyNK7c78bLwvsdeMH5-21">
          <mxGeometry x="360" y="260" width="100" height="60" as="geometry" />
        </mxCell>
        <mxCell id="J4HFlhDhFd4bc666YAR--47" value="ICC 2nd submission" style="rounded=0;whiteSpace=wrap;html=1;" vertex="1" parent="dNxyNK7c78bLwvsdeMH5-21">
          <mxGeometry x="1024.5" y="180" width="100" height="60" as="geometry" />
        </mxCell>
        <mxCell id="J4HFlhDhFd4bc666YAR--51" value="Draft QTRIP to ICC" style="shape=document;whiteSpace=wrap;html=1;boundedLbl=1;" vertex="1" parent="dNxyNK7c78bLwvsdeMH5-21">
          <mxGeometry x="1010" y="10" width="180" height="120" as="geometry" />
        </mxCell>
        <mxCell id="J4HFlhDhFd4bc666YAR--85" value="" style="endArrow=classic;html=1;rounded=0;" edge="1" parent="dNxyNK7c78bLwvsdeMH5-21">
          <mxGeometry width="50" height="50" relative="1" as="geometry">
            <mxPoint x="530" y="110" as="sourcePoint" />
            <mxPoint x="529" y="80" as="targetPoint" />
          </mxGeometry>
        </mxCell>
        <mxCell id="J4HFlhDhFd4bc666YAR--86" value="&lt;b style=&quot;text-decoration-line: underline;&quot;&gt;QTRIP January review&lt;/b&gt;&lt;br&gt;PIP led formal program review&amp;nbsp;" style="rounded=0;whiteSpace=wrap;html=1;align=center;" vertex="1" parent="dNxyNK7c78bLwvsdeMH5-21">
          <mxGeometry x="260" y="110" width="170" height="110" as="geometry" />
        </mxCell>
        <mxCell id="J4HFlhDhFd4bc666YAR--78" value="QTRIP review extract for each PDO/non-PDO" style="shape=document;whiteSpace=wrap;html=1;boundedLbl=1;" vertex="1" parent="dNxyNK7c78bLwvsdeMH5-21">
          <mxGeometry x="470" y="30" width="120" height="60" as="geometry" />
        </mxCell>
        <mxCell id="dNxyNK7c78bLwvsdeMH5-22" value="Lane 3" style="swimlane;html=1;startSize=20;horizontal=0;" parent="dNxyNK7c78bLwvsdeMH5-19" vertex="1">
          <mxGeometry x="20" y="860" width="1460" height="295" as="geometry" />
        </mxCell>
        <mxCell id="J4HFlhDhFd4bc666YAR--43" value="Federal Budget released (May)" style="rounded=0;whiteSpace=wrap;html=1;" vertex="1" parent="dNxyNK7c78bLwvsdeMH5-22">
          <mxGeometry x="900" y="35" width="100" height="60" as="geometry" />
        </mxCell>
        <mxCell id="J4HFlhDhFd4bc666YAR--44" value="CBRC outcomes (MAy)" style="rounded=0;whiteSpace=wrap;html=1;" vertex="1" parent="dNxyNK7c78bLwvsdeMH5-22">
          <mxGeometry x="1001" y="35" width="100" height="60" as="geometry" />
        </mxCell>
        <mxCell id="J4HFlhDhFd4bc666YAR--48" value="Cabinet consideration" style="rounded=0;whiteSpace=wrap;html=1;" vertex="1" parent="dNxyNK7c78bLwvsdeMH5-22">
          <mxGeometry x="1250" y="65" width="100" height="60" as="geometry" />
        </mxCell>
        <mxCell id="J4HFlhDhFd4bc666YAR--50" value="Release June" style="rounded=0;whiteSpace=wrap;html=1;" vertex="1" parent="dNxyNK7c78bLwvsdeMH5-22">
          <mxGeometry x="1200" y="165" width="100" height="60" as="geometry" />
        </mxCell>
        <mxCell id="J4HFlhDhFd4bc666YAR--49" value="Minister approval" style="rounded=0;whiteSpace=wrap;html=1;" vertex="1" parent="dNxyNK7c78bLwvsdeMH5-22">
          <mxGeometry x="1080" y="205" width="100" height="60" as="geometry" />
        </mxCell>
        <mxCell id="dNxyNK7c78bLwvsdeMH5-24" value="Quarter 2 - October to December&amp;nbsp;" style="rounded=0;whiteSpace=wrap;html=1;fontFamily=Helvetica;fontSize=12;fontColor=#000000;align=center;" parent="1" vertex="1">
          <mxGeometry x="210" y="80" width="410" height="30" as="geometry" />
        </mxCell>
        <mxCell id="dNxyNK7c78bLwvsdeMH5-25" value="" style="edgeStyle=orthogonalEdgeStyle;rounded=0;orthogonalLoop=1;jettySize=auto;html=1;" parent="1" source="dNxyNK7c78bLwvsdeMH5-23" target="dNxyNK7c78bLwvsdeMH5-24" edge="1">
          <mxGeometry relative="1" as="geometry" />
        </mxCell>
        <mxCell id="J4HFlhDhFd4bc666YAR--56" value="Quarter 3 - January to March&amp;nbsp;" style="rounded=0;whiteSpace=wrap;html=1;fontFamily=Helvetica;fontSize=12;fontColor=#000000;align=center;" vertex="1" parent="1">
          <mxGeometry x="620" y="80" width="540" height="30" as="geometry" />
        </mxCell>
        <mxCell id="J4HFlhDhFd4bc666YAR--57" value="Quarter 4 - April to June" style="rounded=0;whiteSpace=wrap;html=1;fontFamily=Helvetica;fontSize=12;fontColor=#000000;align=center;" vertex="1" parent="1">
          <mxGeometry x="1160" y="80" width="490" height="30" as="geometry" />
        </mxCell>
      </root>
    </mxGraphModel>
  </diagram>
</mxfile>
